<svg version="1.2" xmlns="http://www.w3.org/2000/svg" viewBox="0 0 258 257" width="258" height="257">
	<title>logotipo-svg</title>
	<style>
		tspan { white-space:pre } 
		.s0 { fill: #0079ff } 
		.s1 { fill: #ff0000 } 
		.t2 { font-size: 111px;fill: #ffffff;font-weight: 700;font-family: "Inter-Bold", "Inter" } 
		.t3 { font-size: 26px;fill: #ffffff;font-weight: 700;font-family: "Inter-Bold", "Inter" } 
	</style>
	<path id="Forma 1" class="s0" d="m247.7 229l-236.7 1.9 116.7-205.9z"/>
	<path id="Layer" class="s1" d="m194.9 8.1l-76 14.8q-0.4 0.1-0.8 0.4-0.4 0.2-0.7 0.5-0.3 0.4-0.5 0.8-0.2 0.5-0.2 0.9l-4.7 79q0 0.6 0.2 1.3 0.3 0.6 0.8 1 0.5 0.4 1.1 0.6 0.7 0.1 1.3 0l21.2-4.9c2-0.5 3.7 1.3 3.3 3.3l-6.2 30.8c-0.5 2 1.5 3.8 3.5 3.2l13.1-4c2-0.6 3.9 1.2 3.5 3.2l-10 48.4c-0.6 3 3.4 4.7 5.1 2.1l1.1-1.7 62-123.6c1-2.1-0.8-4.5-3.1-4l-21.8 4.2c-2 0.4-3.7-1.5-3.2-3.5l14.3-49.3c0.5-2-1.2-3.9-3.3-3.5z"/>
	<text id="Abrime" style="transform: matrix(1,0,0,1,50,218)" >
		<tspan x="0" y="0" class="t2">A</tspan><tspan  y="0" class="t3">b</tspan><tspan  y="0" class="t3">r</tspan><tspan  y="0" class="t3">i</tspan><tspan  y="0" class="t3">m</tspan><tspan  y="0" class="t3">e
</tspan>
	</text>
</svg>